# xmcd
#
# Track frame offsets: 
#        150
#        22770
#        41935
#        56742
#        72660
#        87080
#        105582
#        122367
#        137080
#        157495
#        176070
#
# Disc length: 2667 seconds
#
# Revision: 5
# Processed by: cddbd v1.5.2PL0 Copyright (c) Steve Scherf et al.
# Submitted via: ExactAudioCopy v1.3
#
DISCID=9a0a690b
DTITLE=Mario - Scandalous
DYEAR=1991
DGENRE=Hip-Hop
TTITLE0=You Gotta Believe (Can't Stop The Bum Rush)
TTITLE1=Movin' Groovin' (That's What We're Doin')
TTITLE2=Shake It, Don't Break It
TTITLE3=Fly Away
TTITLE4=Whip It Baby
TTITLE5=In My Hut
TTITLE6=Good Vibrations
TTITLE7=Groove L.A.
TTITLE8=Gucci Underwear
TTITLE9=Our New Crew Get's Busy
TTITLE10=You Gotta Believe (Can't Stop The Bum Rush) (Reggie Reg B-Mix
TTITLE10=)
EXTD=more info - MillenniumMusicProjectFormat - SYNTAX=SongTitle{Subtit
EXTD=le}[miscInfo](Lyricist;Composer;Date,Artist,Location,State,Countr
EXTD=y)
EXTT0=
EXTT1=
EXTT2=
EXTT3=
EXTT4=
EXTT5=
EXTT6=
EXTT7=
EXTT8=
EXTT9=
EXTT10=
PLAYORDER=
